
<svg width="170px" height="102px" viewBox="0 0 170 102" version="1.1" xmlns="http://www.w3.org/2000/svg" xmlns:xlink="http://www.w3.org/1999/xlink">
    <!-- Generator: Sketch 48.2 (47327) - http://www.bohemiancoding.com/sketch -->
    <desc>Created with Sketch.</desc>
    <defs></defs>
    <g id="Page-1" stroke="none" stroke-width="1" fill="none" fill-rule="evenodd">
        <g id="side-bar" transform="translate(-364.000000, -24.000000)" fill="#FFFFFF">
            <g id="Group-4" transform="translate(364.000000, 24.000000)">
                <g id="Group">
                    <path d="M165.120611,61 L139.503817,9.76 L113.887023,61 L109.007634,61 L139.503817,0 L170,61 L165.120611,61 Z" id="Combined-Shape"></path>
                    <path d="M30.4961832,61 C13.6536063,61 0,47.3446849 0,30.5 C0,13.6553151 13.6536063,0 30.4961832,0 C47.3387601,0 60.9923664,13.6553151 60.9923664,30.5 C60.9923664,47.3446849 47.3387601,61 30.4961832,61 Z M30.4961832,56.12 C44.6439478,56.12 56.1129771,44.6495353 56.1129771,30.5 C56.1129771,16.3504647 44.6439478,4.88 30.4961832,4.88 C16.3484186,4.88 4.87938931,16.3504647 4.87938931,30.5 C4.87938931,44.6495353 16.3484186,56.12 30.4961832,56.12 Z" id="Combined-Shape"></path>
                    <path d="M100.437467,55.9995592 L97.9405553,61 C81.1181611,61 67.480916,47.3446849 67.480916,30.5 C67.480916,13.6553151 81.1181611,0 97.9405553,0 C107.90504,0 116.751983,4.79110645 122.30916,12.1982175 L119.812352,17.1984434 C115.322801,9.81250412 107.20694,4.88 97.9405553,4.88 C83.8097441,4.88 72.3544583,16.3504647 72.3544583,30.5 C72.3544583,44.6495353 83.8097441,56.12 97.9405553,56.12 C98.7829886,56.12 99.6159127,56.0792321 100.437467,55.9995592 Z" id="Combined-Shape"></path>
                </g>
            </g>
        </g>
    </g>
</svg>